<svg xmlns="http://www.w3.org/2000/svg" version="1.1"><g class="scope"><rect class="scope scope-root" stroke="black" stroke-wdith="1px" fill="none" width="400" height="1195" x="0" y="0"></rect><text class="labelName" x="0" y="0" dx="5px" dy="20px">Program</text><g class="variables" transform="translate(0, 25)"><text x="0" y="0" dx="5px" dy="20px">res</text><text x="0" y="20" dx="5px" dy="20px">rep</text><text x="0" y="40" dx="5px" dy="20px">stuff</text></g></g><g class="scope"><rect class="scope" stroke="black" stroke-wdith="1px" fill="none" width="390" height="195" x="5" y="95"></rect><text class="labelName" x="5" y="95" dx="5px" dy="20px">ReplyA</text><g class="variables" transform="translate(5, 120)"><text x="0" y="0" dx="5px" dy="20px">res</text><text x="0" y="20" dx="5px" dy="20px">rep</text><text x="0" y="40" dx="5px" dy="20px">stuff</text></g></g><g class="scope"><rect class="scope scope-leaf" stroke="black" stroke-wdith="1px" fill="none" width="380" height="95" x="10" y="190"></rect><text class="labelName" x="10" y="190" dx="5px" dy="20px">ReplyA</text><g class="variables" transform="translate(10, 215)"><text x="0" y="0" dx="5px" dy="20px">res</text><text x="0" y="20" dx="5px" dy="20px">rep</text><text x="0" y="40" dx="5px" dy="20px">stuff</text></g></g><g class="scope"><rect class="scope" stroke="black" stroke-wdith="1px" fill="none" width="390" height="395" x="5" y="295"></rect><text class="labelName" x="5" y="295" dx="5px" dy="20px">ReplyB</text><g class="variables" transform="translate(5, 320)"><text x="0" y="0" dx="5px" dy="20px">res</text><text x="0" y="20" dx="5px" dy="20px">rep</text><text x="0" y="40" dx="5px" dy="20px">stuff</text></g></g><g class="scope"><rect class="scope scope-leaf" stroke="black" stroke-wdith="1px" fill="none" width="380" height="95" x="10" y="390"></rect><text class="labelName" x="10" y="390" dx="5px" dy="20px">ReplyB</text><g class="variables" transform="translate(10, 415)"><text x="0" y="0" dx="5px" dy="20px">res</text><text x="0" y="20" dx="5px" dy="20px">rep</text><text x="0" y="40" dx="5px" dy="20px">stuff</text></g></g><g class="scope"><rect class="scope scope-leaf" stroke="black" stroke-wdith="1px" fill="none" width="380" height="95" x="10" y="490"></rect><text class="labelName" x="10" y="490" dx="5px" dy="20px">ReplyB</text><g class="variables" transform="translate(10, 515)"><text x="0" y="0" dx="5px" dy="20px">res</text><text x="0" y="20" dx="5px" dy="20px">rep</text><text x="0" y="40" dx="5px" dy="20px">stuff</text></g></g><g class="scope"><rect class="scope scope-leaf" stroke="black" stroke-wdith="1px" fill="none" width="380" height="95" x="10" y="590"></rect><text class="labelName" x="10" y="590" dx="5px" dy="20px">ReplyB</text><g class="variables" transform="translate(10, 615)"><text x="0" y="0" dx="5px" dy="20px">res</text><text x="0" y="20" dx="5px" dy="20px">rep</text><text x="0" y="40" dx="5px" dy="20px">stuff</text></g></g><g class="scope"><rect class="scope" stroke="black" stroke-wdith="1px" fill="none" width="390" height="295" x="5" y="695"></rect><text class="labelName" x="5" y="695" dx="5px" dy="20px">ReplyC</text><g class="variables" transform="translate(5, 720)"><text x="0" y="0" dx="5px" dy="20px">res</text><text x="0" y="20" dx="5px" dy="20px">rep</text><text x="0" y="40" dx="5px" dy="20px">stuff</text></g></g><g class="scope"><rect class="scope" stroke="black" stroke-wdith="1px" fill="none" width="380" height="195" x="10" y="790"></rect><text class="labelName" x="10" y="790" dx="5px" dy="20px">ReplyC</text><g class="variables" transform="translate(10, 815)"><text x="0" y="0" dx="5px" dy="20px">res</text><text x="0" y="20" dx="5px" dy="20px">rep</text><text x="0" y="40" dx="5px" dy="20px">stuff</text></g></g><g class="scope"><rect class="scope scope-leaf" stroke="black" stroke-wdith="1px" fill="none" width="370" height="95" x="15" y="885"></rect><text class="labelName" x="15" y="885" dx="5px" dy="20px">ReplyD</text><g class="variables" transform="translate(15, 910)"><text x="0" y="0" dx="5px" dy="20px">res</text><text x="0" y="20" dx="5px" dy="20px">rep</text><text x="0" y="40" dx="5px" dy="20px">stuff</text></g></g><g class="scope"><rect class="scope" stroke="black" stroke-wdith="1px" fill="none" width="390" height="195" x="5" y="995"></rect><text class="labelName" x="5" y="995" dx="5px" dy="20px">ReplyE</text><g class="variables" transform="translate(5, 1020)"><text x="0" y="0" dx="5px" dy="20px">res</text><text x="0" y="20" dx="5px" dy="20px">rep</text><text x="0" y="40" dx="5px" dy="20px">stuff</text></g></g><g class="scope"><rect class="scope scope-leaf" stroke="black" stroke-wdith="1px" fill="none" width="380" height="95" x="10" y="1090"></rect><text class="labelName" x="10" y="1090" dx="5px" dy="20px">ReplyE</text><g class="variables" transform="translate(10, 1115)"><text x="0" y="0" dx="5px" dy="20px">res</text><text x="0" y="20" dx="5px" dy="20px">rep</text><text x="0" y="40" dx="5px" dy="20px">stuff</text></g></g></svg>